# xmcd CD database file
# Copyright (C) 1993-1998 Ti Kan
#
# Track frame offsets:
#	150
#	16253
#	32290
#	57448
#	75090
#	90233
#	104595
#	118840
#	132835
#	147705
#	161858
#	180848
#	193913
#	208665
#	220000
#	239483
#
# Disc length: 3377 seconds
#
# Revision: 0
# Processed by: cddbd v1.4b41PL1 Copyright (c) Steve Scherf et al.
# Submitted via: CDmax 1.5.3
#
DISCID=d80d2f10
DTITLE=Joe Goldmark - All Over the Road (The Pedal Steel Excursions of Joe Gol
DTITLE=dmark)
DYEAR=1900
DGENRE=
TTITLE0=Sideways Boogaloo
TTITLE1=Third Stone from the Sun
TTITLE2=Edward
TTITLE3=Pearl of the Quarter
TTITLE4=Peaches en Regalia
TTITLE5=Flash Flood
TTITLE6=Free Ride
TTITLE7=Country Comfort
TTITLE8=Rush Hour
TTITLE9=Chuggin'
TTITLE10=Fantasy
TTITLE11=Spanish Moon
TTITLE12=Couldn't I Just Tell You
TTITLE13=Theme from "Route 66"
TTITLE14=The Fez
TTITLE15=Pedal to the Metal
EXTD=Recorded and mixed at Red Rooster Studio - Berkely, CA, January - April 199
EXTD=4\nLo-Ball Records\n2259 14th Ave, San Francisco, CA,  94116\n\nJoe Goldm
EXTD=ark - Pedal Steel/Dobro/Lap Steel\nMac Cridlin - Bass\nBilly Lee Lewis/Br
EXTD=ent Rampone/Chewy Marzolo - Drums\nHenry Salvia/Billy Philadelphia - Keyb
EXTD=oards\nTony Lufrano/Garth Webber/Duane Wong/Eric Lechner/Gary Potterton/J
EXTD=im Campilongo/Gary Vogenson/Rich Morin - Guitars\nJohn Firmin - Tenor Sax
EXTT0=Joe Goldmark
EXTT1=Jimi Hendrix
EXTT2=Nicky Hopkins
EXTT3=Walter Becker, Donald Fagen
EXTT4=Frank Zappa
EXTT5=Joe Goldmark
EXTT6=Dan Hartman
EXTT7=Elton John, Bernie Taupin
EXTT8=Joe Goldmark
EXTT9=Lee Allen
EXTT10=M.White, E.delBarrio, V.White
EXTT11=Ron Story
EXTT12=Todd Rundgren
EXTT13=Nelson Riddle
EXTT14=Walter Becker, Donald Fagen, P.Griffin
EXTT15=Rich Morin, Chris Marzolo
PLAYORDER=
